<?xml version="1.0" encoding="utf-8"?>
<!-- Generator: Adobe Illustrator 16.0.0, SVG Export Plug-In . SVG Version: 6.00 Build 0)  -->
<!DOCTYPE svg PUBLIC "-//W3C//DTD SVG 1.1//EN" "http://www.w3.org/Graphics/SVG/1.1/DTD/svg11.dtd">
<svg version="1.1" id="Layer_1" xmlns="http://www.w3.org/2000/svg" xmlns:xlink="http://www.w3.org/1999/xlink" x="0px" y="0px"
	 width="553.391px" height="150.519px" viewBox="0 0 853.391 217.519" enable-background="new 0 0 853.391 217.519"
	 xml:space="preserve">
<path fill="#777777" d="M320.537,95.228c0,6.859-2.504,12.738-7.403,17.528c-4.899,4.79-11.758,7.185-20.467,7.185
	c-4.464,0-7.73-0.108-9.907-0.326v21.774c0,3.593-3.048,6.641-6.641,6.641c-3.811,0-6.75-2.83-6.75-6.641V77.59
	c0-3.593,2.831-6.641,6.641-6.75c1.851,0,4.572,0,8.165-0.108h6.859C313.352,70.732,320.537,82.598,320.537,95.228z
	 M282.759,106.876c3.484,0.326,6.641,0.544,9.472,0.544c8.383,0,14.153-4.137,14.153-12.302c0-7.948-4.681-11.867-14.044-11.867
	c-1.633,0-4.79,0.109-9.58,0.218V106.876z"/>
<path fill="#777777" d="M397.506,141.388c0,3.593-3.048,6.641-6.642,6.641c-3.592,0-6.641-3.047-6.641-6.641v-26.782h-34.838v26.782
	c0,3.593-3.048,6.641-6.641,6.641c-3.811,0-6.75-2.83-6.75-6.641V77.046c0-3.811,2.939-6.641,6.75-6.641
	c3.593,0,6.641,2.831,6.641,6.641v25.041h34.838V77.046c0-3.811,3.048-6.641,6.641-6.641c3.593,0,6.642,2.831,6.642,6.641V141.388z"
	/>
<path fill="#777777" d="M461.518,128.542h-32.552l-6.423,15.786c-0.98,2.504-2.831,3.701-5.771,3.701
	c-3.483,0-6.205-2.721-6.205-6.096c0-0.763,0.218-1.524,0.544-2.395l27.109-63.689c1.633-3.593,4.137-5.443,7.512-5.443
	c3.266,0,5.661,1.851,7.294,5.443l27,63.472c0.327,0.979,0.544,1.85,0.544,2.613c0,3.375-2.831,6.096-6.206,6.096
	c-3.266,0-5.443-1.415-6.532-4.136L461.518,128.542z M445.296,88.695l-11.214,27.327H456.4L445.296,88.695z"/>
<path fill="#777777" d="M516.385,118.634h-9.363v22.754c0,3.593-3.049,6.641-6.641,6.641c-3.811,0-6.75-2.83-6.75-6.641V77.59
	c0-3.593,2.832-6.641,6.642-6.641c8.601-0.109,14.044-0.217,16.548-0.217c18.399,0,27.653,7.838,27.653,23.516
	c0,5.879-1.524,10.669-4.464,14.262c-2.939,3.702-6.423,6.206-10.233,7.513l16.657,21.882c0.98,1.197,1.415,2.613,1.415,4.028
	c0,3.375-2.613,6.096-6.423,6.096c-2.286,0-4.354-1.306-6.206-3.81L516.385,118.634z M507.022,106.114h8.709
	c8.274,0,14.589-4.355,14.589-11.758s-4.682-11.105-14.153-11.105c-1.307,0-4.355,0.109-9.146,0.218V106.114z"/>
<path fill="#777777" d="M576.369,93.376v48.012c0,3.593-3.049,6.641-6.642,6.641c-3.81,0-6.75-2.83-6.75-6.641v-63.58
	c0-4.246,3.049-7.403,7.513-7.403c3.157,0,5.987,1.633,8.383,4.79l23.625,31.355l22.536-31.137c2.395-3.375,5.116-5.008,8.274-5.008
	c3.92,0,6.641,2.831,6.641,6.641v64.342c0,3.593-3.048,6.641-6.641,6.641s-6.642-3.047-6.642-6.641V93.268l-18.725,25.258
	c-3.593,4.899-9.036,4.899-12.629,0L576.369,93.376z"/>
<linearGradient id="SVGID_1_" gradientUnits="userSpaceOnUse" x1="670.9731" y1="68.9946" x2="670.9731" y2="151.3723">
	<stop  offset="0" style="stop-color:#FF3636"/>
	<stop  offset="1" style="stop-color:#DB0000"/>
</linearGradient>
<path fill="url(#SVGID_1_)" d="M678.92,111.558c3.157,0,5.771,2.612,5.771,5.77c0,3.157-2.613,5.879-5.771,5.879h-15.895
	c-3.157,0-5.77-2.722-5.77-5.879c0-3.158,2.613-5.77,5.77-5.77H678.92z"/>
<linearGradient id="SVGID_2_" gradientUnits="userSpaceOnUse" x1="724.5889" y1="68.9941" x2="724.5889" y2="151.3723">
	<stop  offset="0" style="stop-color:#FF3636"/>
	<stop  offset="1" style="stop-color:#DB0000"/>
</linearGradient>
<path fill="url(#SVGID_2_)" d="M715.389,134.639h25.693c3.375,0,6.098,2.721,6.098,6.205c0,3.593-2.723,6.314-6.098,6.314h-32.987
	c-3.375,0-6.097-2.722-6.097-6.097V77.046c0-3.375,2.722-6.097,6.097-6.097h31.899c3.374,0,6.097,2.722,6.097,6.205
	c0,3.593-2.723,6.315-6.097,6.315h-24.605v18.943h21.339c3.376,0,6.097,2.721,6.097,6.205c0,3.593-2.721,6.315-6.097,6.315h-21.339
	V134.639z"/>
<linearGradient id="SVGID_3_" gradientUnits="userSpaceOnUse" x1="790.4521" y1="68.9941" x2="790.4521" y2="151.3727">
	<stop  offset="0" style="stop-color:#FF3636"/>
	<stop  offset="1" style="stop-color:#DB0000"/>
</linearGradient>
<path fill="url(#SVGID_3_)" d="M797.91,82.272c-7.186,0-13.064,2.395-17.746,7.294s-7.076,11.323-7.076,19.488
	c0,7.947,2.504,14.37,7.402,19.269c4.899,5.008,11.215,7.513,18.943,7.513c4.029,0,8.165-0.98,12.194-2.94
	c1.632-0.762,3.157-1.089,4.354-1.089c2.068,0,3.702,0.872,4.899,2.504c0.761,0.979,1.089,2.177,1.089,3.484
	c0,2.287-0.98,4.028-3.049,5.334c-5.334,3.484-12.193,5.226-20.686,5.226c-11.649,0-21.121-3.593-28.415-10.778
	s-10.888-16.657-10.888-28.523c0-11.432,3.484-20.794,10.343-28.198c6.859-7.403,16.44-11.104,28.634-11.104
	c6.424,0,12.084,1.306,17.201,3.919c2.722,1.306,4.137,3.157,4.137,5.661c0,0.98-0.326,1.96-0.87,3.158
	c-1.197,2.068-2.94,3.048-5.335,3.048c-1.307,0-2.504-0.218-3.593-0.762C805.531,83.142,801.72,82.272,797.91,82.272z"/>
<linearGradient id="SVGID_4_" gradientUnits="userSpaceOnUse" x1="81.771" y1="185.1318" x2="81.771" y2="58.7344">
	<stop  offset="0" style="stop-color:#1F88E6"/>
	<stop  offset="1" style="stop-color:#9ECEF7"/>
</linearGradient>
<path fill="url(#SVGID_4_)" d="M105.851,121.485c-10.331-8.773-28.502-6.035-28.502-6.035c-6.845,0.083-9.352-0.695-9.957-0.85
	c-2.581-0.449-5.776-2.291-5.776-2.291c-10.711-7.225-12.646-28.083-12.99-36.285c0.118-2.698,0.108-12.383-6.054-13.179
	c0,0-4.625-1.85-5.087,8.555v10.896c0,0-4.162,54.103,33.641,72.483c0,0,43.352,14.566,54.796,34.335
	C125.922,189.115,130.078,144.674,105.851,121.485z"/>
<linearGradient id="SVGID_5_" gradientUnits="userSpaceOnUse" x1="85.6694" y1="120.5835" x2="85.6694" y2="73.0937">
	<stop  offset="0" style="stop-color:#1F88E6"/>
	<stop  offset="1" style="stop-color:#9ECEF7"/>
</linearGradient>
<path fill="url(#SVGID_5_)" d="M77.183,115.948c0,0,17.235-3.104,29.539,6.638c-1.006-0.963-2.931-2.989-4.036-3.874
	c0,0-27.052-25.896-30.75-41.387c0,0-1.158-6.705-5.549,1.85c0,0-5.549,10.636,3.006,21.271c6.794,8.199-0.373,14.104-0.373,14.104
	c-0.961,0.374-1.915,0.408-2.803,0.254C66.822,114.961,71.235,116.565,77.183,115.948z"/>
<linearGradient id="SVGID_6_" gradientUnits="userSpaceOnUse" x1="191.4575" y1="185.1318" x2="191.4575" y2="58.7344">
	<stop  offset="0" style="stop-color:#1F88E6"/>
	<stop  offset="1" style="stop-color:#9ECEF7"/>
</linearGradient>
<path fill="url(#SVGID_6_)" d="M167.377,121.485c10.331-8.773,28.502-6.035,28.502-6.035c6.845,0.083,9.352-0.695,9.957-0.85
	c2.581-0.449,5.776-2.291,5.776-2.291c10.711-7.225,12.646-28.083,12.99-36.285c-0.118-2.698-0.108-12.383,6.054-13.179
	c0,0,4.625-1.85,5.087,8.555v10.896c0,0,4.161,54.103-33.641,72.483c0,0-43.351,14.566-54.796,34.335
	C147.307,189.115,143.151,144.674,167.377,121.485z"/>
<linearGradient id="SVGID_7_" gradientUnits="userSpaceOnUse" x1="187.5591" y1="120.5835" x2="187.5591" y2="73.0937">
	<stop  offset="0" style="stop-color:#1F88E6"/>
	<stop  offset="1" style="stop-color:#9ECEF7"/>
</linearGradient>
<path fill="url(#SVGID_7_)" d="M196.045,115.948c0,0-17.235-3.104-29.538,6.638c1.006-0.963,2.931-2.989,4.036-3.874
	c0,0,27.052-25.896,30.75-41.387c0,0,1.158-6.705,5.55,1.85c0,0,5.549,10.636-3.006,21.271c-6.794,8.199,0.372,14.104,0.372,14.104
	c0.961,0.374,1.916,0.408,2.804,0.254C206.407,114.961,201.993,116.565,196.045,115.948z"/>
<g>
	<linearGradient id="SVGID_8_" gradientUnits="userSpaceOnUse" x1="110.5054" y1="29.4766" x2="110.5054" y2="125.5922">
		<stop  offset="0" style="stop-color:#FF3636"/>
		<stop  offset="1" style="stop-color:#DB0000"/>
	</linearGradient>
	<path fill="url(#SVGID_8_)" d="M93.201,72.434c16.348-7.567,46.6-23.579,38.974-35.393l-1.016-0.864
		c-7.197-6.788-20.63-8.616-29.805-4.294C90.665,36.917,85.622,48.138,88.36,60.598C89.306,64.899,91.017,68.789,93.201,72.434z"/>
	<linearGradient id="SVGID_9_" gradientUnits="userSpaceOnUse" x1="151.9829" y1="29.4761" x2="151.9829" y2="125.5928">
		<stop  offset="0" style="stop-color:#FF3636"/>
		<stop  offset="1" style="stop-color:#DB0000"/>
	</linearGradient>
	<path fill="url(#SVGID_9_)" d="M185.913,49.347c-0.513-3.124-1.667-6.04-3.318-8.623c5.261,11.456-2.355,30.913-65.117,59.853
		c3.054,2.821,6.229,5.522,9.546,8.082c1.262,0.973,2.679,1.768,4.088,2.523c4.029,2.16,8.177,2.243,11.992-0.245
		c3.762-2.453,7.48-5.076,10.793-8.092c8.554-7.784,16.544-16.118,23.452-25.445c3.273-4.421,5.917-9.068,7.438-14.158l0.006,0.078
		c1.272-3.059,1.581-7.603,1.653-9.334c0.016-0.042,0.028-0.083,0.042-0.125c0-0.153,0-0.306,0-0.459
		C186.298,52.049,186.135,50.693,185.913,49.347z"/>
	<linearGradient id="SVGID_10_" gradientUnits="userSpaceOnUse" x1="137.7593" y1="29.5337" x2="137.7593" y2="125.6496">
		<stop  offset="0" style="stop-color:#FF3636"/>
		<stop  offset="1" style="stop-color:#DB0000"/>
	</linearGradient>
	<path fill="url(#SVGID_10_)" d="M175.463,33.531c-3.692-2.42-8.081-3.873-12.749-3.985c-7.43-0.179-14.226,1.479-19.825,6.545
		l-3.61,3.073c0,0-0.465,0.367-1.084,0.58l0,0c-0.317,0.156-0.708,0.205-1.068,0.206l-0.306-0.01
		c-0.445-0.028-0.786-0.112-0.786-0.112l0.001,0c-0.247-0.058-0.474-0.149-0.673-0.245c4.564,7.454,1.881,20.262-38.407,38.369
		c0.361,0.477,0.727,0.952,1.1,1.423c3.922,4.952,8.023,9.726,12.366,14.261C122.261,88.189,194.207,53.905,175.463,33.531z"/>
</g>
</svg>
